<svg width="42" height="42" viewBox="0 0 42 42" fill="none" xmlns="http://www.w3.org/2000/svg">
<g clip-path="url(#clip0_19_243)">
<path d="M31.5 0H10.5C4.70101 0 0 4.70101 0 10.5V31.5C0 37.299 4.70101 42 10.5 42H31.5C37.299 42 42 37.299 42 31.5V10.5C42 4.70101 37.299 0 31.5 0Z" fill="#DECDF0"/>
<path d="M34.125 10.5H18.375C14.0258 10.5 10.5 14.0258 10.5 18.375V34.125C10.5 38.4742 14.0258 42 18.375 42H34.125C38.4742 42 42 38.4742 42 34.125V18.375C42 14.0258 38.4742 10.5 34.125 10.5Z" fill="#9C6AD1"/>
<path d="M36.75 23.625H28.875C25.9755 23.625 23.625 25.9755 23.625 28.875V36.75C23.625 39.6495 25.9755 42 28.875 42H36.75C39.6495 42 42 39.6495 42 36.75V28.875C42 25.9755 39.6495 23.625 36.75 23.625Z" fill="#5A06B3"/>
</g>
<defs>
<clipPath id="clip0_19_243">
<rect width="42" height="42" fill="white"/>
</clipPath>
</defs>
</svg>
